<svg width="60" height="58" viewBox="0 0 60 58" fill="none" xmlns="http://www.w3.org/2000/svg">
<g clip-path="url(#clip0_6609:375)">
<path d="M31.2754 57.5723C47.1396 57.5723 60.0001 44.6843 60.0001 28.7861C60.0001 12.888 47.1396 0 31.2754 0C15.4112 0 2.55078 12.888 2.55078 28.7861C2.55078 44.6843 15.4112 57.5723 31.2754 57.5723Z" fill="#2396E9"/>
<g filter="url(#filter0_d_6609:375)">
<path d="M48.459 37.3352C50.809 32.6104 51.2961 26.7948 48.8474 20.8173C47.924 18.5777 46.5548 16.5504 44.8233 14.859C43.0917 13.1676 41.0343 11.8478 38.7766 10.9801C22.5168 4.75322 7.32097 19.9562 13.4881 36.2484C14.3647 38.5451 15.7041 40.6362 17.4227 42.3913C19.1413 44.1464 21.2023 45.5278 23.4772 46.4495C29.6647 48.955 35.6515 48.2861 40.4298 45.6718C41.0753 45.306 41.8253 45.1697 42.5579 45.285L46.7944 46.0161C47.0321 46.0573 47.276 46.0429 47.5072 45.9741C47.7385 45.9053 47.9507 45.7839 48.1274 45.6193C48.3041 45.4548 48.4404 45.2515 48.5258 45.0254C48.6112 44.7994 48.6434 44.5566 48.6197 44.316C48.4565 42.6716 48.2264 40.4376 48.0991 39.1767C48.0417 38.541 48.1665 37.9022 48.459 37.3352Z" fill="white"/>
</g>
<path d="M24.057 28.7453C26.1278 28.7453 27.8064 27.0631 27.8064 24.9879C27.8064 22.9127 26.1278 21.2305 24.057 21.2305C21.9863 21.2305 20.3076 22.9127 20.3076 24.9879C20.3076 27.0631 21.9863 28.7453 24.057 28.7453Z" fill="#15CF68"/>
<path d="M37.9032 28.7453C39.974 28.7453 41.6526 27.0631 41.6526 24.9879C41.6526 22.9127 39.974 21.2305 37.9032 21.2305C35.8325 21.2305 34.1538 22.9127 34.1538 24.9879C34.1538 27.0631 35.8325 28.7453 37.9032 28.7453Z" fill="#15CF68"/>
</g>
<defs>
<filter id="filter0_d_6609:375" x="11.0845" y="9.55322" width="46.3833" height="46.4653" filterUnits="userSpaceOnUse" color-interpolation-filters="sRGB">
<feFlood flood-opacity="0" result="BackgroundImageFix"/>
<feColorMatrix in="SourceAlpha" type="matrix" values="0 0 0 0 0 0 0 0 0 0 0 0 0 0 0 0 0 0 127 0" result="hardAlpha"/>
<feOffset dx="3" dy="4"/>
<feGaussianBlur stdDeviation="2"/>
<feColorMatrix type="matrix" values="0 0 0 0 0 0 0 0 0 0 0 0 0 0 0 0 0 0 0.25 0"/>
<feBlend mode="normal" in2="BackgroundImageFix" result="effect1_dropShadow_6609:375"/>
<feBlend mode="normal" in="SourceGraphic" in2="effect1_dropShadow_6609:375" result="shape"/>
</filter>
<clipPath id="clip0_6609:375">
<rect width="60" height="57.5723" fill="white"/>
</clipPath>
</defs>
</svg>
